<?xml version="1.0" encoding="UTF-8"?><svg id="Layer_1" xmlns="http://www.w3.org/2000/svg" xmlns:xlink="http://www.w3.org/1999/xlink" viewBox="0 0 1966.67 456.78"><defs><style>.cls-1,.cls-2,.cls-3{fill:none;}.cls-2{clip-path:url(#clippath-1);}.cls-4{fill:url(#radial-gradient);}.cls-4,.cls-5,.cls-6,.cls-7,.cls-8,.cls-9{fill-rule:evenodd;}.cls-5{fill:url(#linear-gradient);}.cls-10,.cls-9{fill:#fff;}.cls-11{fill:#161225;}.cls-6{fill:url(#radial-gradient-2);}.cls-7{fill:#5a78ff;}.cls-8{fill:#ff5b24;}.cls-3{clip-path:url(#clippath);}</style><clipPath id="clippath"><rect class="cls-1" x="1662.82" y="152.84" width="150.82" height="150.82"/></clipPath><radialGradient id="radial-gradient" cx="-1798.97" cy="732.46" fx="-1798.97" fy="732.46" r=".29" gradientTransform="translate(82891.77 -147478.38) rotate(-78.91) scale(89.25 -69.91)" gradientUnits="userSpaceOnUse"><stop offset="0" stop-color="#626262"/><stop offset="1" stop-color="#fff"/></radialGradient><linearGradient id="linear-gradient" x1="1729.08" y1="223.92" x2="1753.49" y2="240.71" gradientTransform="translate(0 458.91) scale(1 -1)" gradientUnits="userSpaceOnUse"><stop offset="0" stop-color="#c0bdca"/><stop offset="1" stop-color="#fff"/></linearGradient><radialGradient id="radial-gradient-2" cx="-1815.52" cy="789.32" fx="-1815.52" fy="789.32" r=".29" gradientTransform="translate(-104979.58 106698.12) rotate(90) scale(58.65 -135.23)" gradientUnits="userSpaceOnUse"><stop offset="0" stop-color="#c7c4cf"/><stop offset=".58" stop-color="#c6c3cf"/><stop offset="1" stop-color="#fff" stop-opacity="0"/></radialGradient><clipPath id="clippath-1"><rect class="cls-1" x="1491.29" y="152.82" width="150.82" height="150.82"/></clipPath></defs><path class="cls-11" d="m192.22,274.8l-40.23-109.32h23.03l26.82,82.36,26.82-82.36h23.03l-40.23,109.32h-19.24Z"/><path class="cls-11" d="m280.28,165.77c0,6.7-4.67,11.37-11.52,11.37s-11.52-4.66-11.52-11.37,4.66-11.37,11.52-11.37,11.52,4.66,11.52,11.37Zm-1.31,25.07v83.96h-20.41v-83.96h20.41Z"/><path class="cls-11" d="m377.25,231.51c0,30.61-18.37,45.48-37.17,45.48-10.06,0-18.95-3.94-25.8-13.26v40.23h-20.55v-113.11h20.55v11.52c5.68-7.87,14.58-13.85,27.55-13.85,16.33,0,35.42,13.7,35.42,43Zm-62.97,1.02c0,17.2,9.91,26.24,20.99,26.24,10.5,0,21.28-8.45,21.28-26.24s-10.79-25.95-21.14-25.95c-11.22,0-21.13,8.02-21.13,25.95Z"/><path class="cls-11" d="m471.9,231.51c0,30.61-18.37,45.48-37.17,45.48-10.06,0-18.95-3.94-25.8-13.26v40.23h-20.55v-113.11h20.55v11.52c5.68-7.87,14.58-13.85,27.55-13.85,16.32,0,35.42,13.7,35.42,43Zm-62.97,1.02c0,17.2,9.91,26.24,20.99,26.24,10.49,0,21.28-8.45,21.28-26.24s-10.79-25.95-21.14-25.95c-11.22,0-21.14,8.02-21.14,25.95Z"/><path class="cls-11" d="m511.18,188.51c16.91,0,29.3,7.87,34.4,27.7l-18.51,2.91c-.29-10.06-6.56-13.12-15.45-13.12-7,0-12.1,3.06-12.1,7.87,0,3.79,2.62,7.73,10.5,9.18l14.14,2.62c13.85,2.62,21.28,11.66,21.28,24.05,0,18.22-16.47,27.26-31.92,27.26-16.33,0-34.4-8.45-37.32-29.01l18.51-2.92c1.02,10.64,7.58,14.43,18.07,14.43,8.02,0,13.41-2.92,13.41-8.02,0-4.52-2.48-7.87-11.22-9.47l-12.83-2.33c-13.56-2.48-21.86-12.1-21.86-24.34,0-18.95,17.2-26.82,30.9-26.82Z"/><path class="cls-11" d="m713.79,165.48v109.32h-21.14v-70.4l-31.78,69.67v.73h-11.37l-32.21-69.82v69.82h-20.84v-109.32h21.28l38.19,77.55,36.73-77.55h21.14Z"/><path class="cls-11" d="m808.35,232.68c0,27.55-18.8,44.31-41.54,44.31s-41.54-16.76-41.54-44.31,18.8-44.17,41.54-44.17,41.54,16.62,41.54,44.17Zm-62.39,0c0,17.64,9.47,26.24,20.84,26.24s20.84-8.6,20.84-26.24-9.47-26.09-20.84-26.09-20.84,8.45-20.84,26.09Z"/><path class="cls-11" d="m839.51,161.84v42.13c4.52-7.58,13.26-15.45,27.55-15.45,16.33,0,35.42,13.7,35.42,43s-18.37,45.48-37.17,45.48c-10.93,0-19.97-5.1-25.8-14.58v12.39h-20.55v-112.97h20.55Zm0,70.69c0,17.2,9.91,26.24,20.99,26.24,10.35,0,21.28-8.45,21.28-26.24s-10.79-25.95-21.14-25.95c-11.22,0-21.14,8.02-21.14,25.95Z"/><path class="cls-11" d="m934.88,165.77c0,6.7-4.66,11.37-11.52,11.37s-11.52-4.66-11.52-11.37,4.66-11.37,11.52-11.37,11.52,4.66,11.52,11.37Zm-1.31,25.07v83.96h-20.41v-83.96h20.41Z"/><path class="cls-11" d="m968.81,161.84v112.97h-20.41v-112.97h20.41Z"/><path class="cls-11" d="m1000.01,237.2c1.31,13.12,8.89,21.72,22.3,21.72,12.68,0,17.78-5.1,19.39-13.12l18.66,2.92c-3.21,19.39-21.86,28.28-37.32,28.28-24.78,0-44.02-16.76-44.02-44.46s18.07-44.02,41.98-44.02c22.45,0,38.48,17.49,38.48,42.27v6.41h-59.47Zm.58-14.72h39.21c-1.75-12.1-9.77-16.76-19.53-16.76s-17.2,5.1-19.68,16.76Z"/><path class="cls-11" d="m1109.17,165.48c23.9,0,39.65,13.12,39.65,37.61,0,21.14-16.62,37.46-39.5,37.46h-16.32v34.25h-21.14v-109.32h37.32Zm-16.18,55.97h15.16c11.37,0,18.22-6.56,18.22-18.07,0-12.24-6.85-18.8-17.93-18.8h-15.45v36.88Z"/><path class="cls-11" d="m1153.18,231.95c0-29.3,18.66-43.44,37.46-43.44,10.06,0,18.66,3.79,25.51,13.12v-10.79h20.55v83.96h-20.55v-11.81c-5.83,7.87-14.72,13.99-27.84,13.99-16.32,0-35.13-14.28-35.13-45.04Zm20.7,1.02c0,17.93,10.79,25.8,21.14,25.8,11.22,0,21.14-7.43,21.14-25.8s-9.91-26.38-20.99-26.38c-10.35,0-21.28,8.16-21.28,26.38Z"/><path class="cls-11" d="m1246.63,300.9l2.92-18.07c2.62,1.6,6.7,3.5,12.97,3.5,11.95,0,14.28-10.06,9.91-20.99l-29.74-74.63h22.88l19.68,58.01,18.66-58.01h22.59l-33.52,87.6c-6.56,17.05-15.6,25.65-31.92,25.65-5.54,0-10.5-1.17-14.43-3.06Z"/><g id="mask4_1498_2840"><g class="cls-3"><path class="cls-7" d="m1813.64,200.61c0-1.83,0-3.66-.01-5.47,0-1.55-.03-3.07-.07-4.62-.04-3.36-.34-6.71-.88-10.03-.57-3.32-1.63-6.53-3.14-9.54-3.08-6.03-7.99-10.93-14.02-14.01-3-1.52-6.21-2.58-9.53-3.15-3.32-.54-6.67-.84-10.03-.89-1.53-.04-3.07-.06-4.61-.06-1.82-.02-3.65-.02-5.47-.02h-55.29c-1.82,0-3.65,0-5.47.02-1.54,0-3.07.02-4.61.06-3.36.05-6.71.35-10.03.89-3.32.56-6.53,1.63-9.53,3.15-6.03,3.08-10.94,7.98-14.02,14.01-1.52,3.01-2.58,6.22-3.14,9.54-.55,3.32-.84,6.67-.88,10.03-.04,1.55-.06,3.07-.07,4.62-.01,1.81-.01,3.64-.01,5.47v55.28c0,1.83,0,3.66.01,5.47,0,1.55.03,3.08.07,4.62.04,3.36.34,6.71.88,10.03.57,3.32,1.63,6.53,3.14,9.54,3.08,6.03,7.99,10.93,14.02,14.01,3,1.52,6.22,2.58,9.53,3.15,3.32.55,6.67.85,10.03.88,1.54.04,3.07.06,4.61.06,1.82.02,3.65.02,5.47.02h55.29c1.82,0,3.65,0,5.47-.02,1.54,0,3.07-.02,4.61-.06,3.36-.04,6.72-.34,10.03-.88,3.32-.57,6.53-1.63,9.53-3.15,6.03-3.08,10.94-7.98,14.02-14.01,1.52-3.01,2.57-6.22,3.14-9.54.54-3.32.84-6.67.88-10.03.04-1.54.06-3.07.07-4.62.01-1.81.01-3.64.01-5.47v-55.28h0Z"/></g></g><path class="cls-4" d="m1730.7,186.74c-.45,0-.91.09-1.35.27l-27.79,11.56c-.88.36-1.56,1.05-1.92,1.93-.36.88-.36,1.85,0,2.73l26.54,64.35c.75,1.82,2.83,2.68,4.63,1.93l27.79-11.57c1.81-.75,2.67-2.84,1.92-4.65l-26.54-64.34c-.57-1.37-1.89-2.2-3.28-2.2Zm-1.24,87.19c-3.02,0-5.88-1.79-7.11-4.76l-26.54-64.35c-.78-1.9-.78-4,0-5.9.79-1.9,2.26-3.39,4.16-4.18l27.79-11.56c3.91-1.62,8.41.24,10.04,4.18l26.54,64.35c1.62,3.93-.25,8.45-4.16,10.08l-27.79,11.56c-.96.4-1.95.59-2.93.59Z"/><path class="cls-5" d="m1754.24,230.13c-8.05,3.33-14.77,7.92-19.17,13.46l-11.35-27.35c4.81-5.78,11.12-10.13,19.17-13.45,8.05-3.33,16.18-4.94,23.09-4l11.35,27.35c-7.18-.75-15.04.68-23.09,4Z"/><path class="cls-6" d="m1754.24,230.13c-8.05,3.33-14.77,7.92-19.17,13.46l-11.35-27.35c4.81-5.78,11.12-10.13,19.17-13.45,8.05-3.33,16.18-4.94,23.09-4l11.35,27.35c-7.18-.75-15.04.68-23.09,4Z"/><path class="cls-9" d="m1758.04,238.53c-8.7,0-16.65,1.66-22.83,5.05v-27.34c6.66-3.47,14.14-5.06,22.83-5.05,8.7,0,16.81,1.59,22.83,5.06v27.34c-6.33-3.39-14.14-5.06-22.83-5.06Z"/><g class="cls-2"><path class="cls-8" d="m1642.11,200.59c0-1.83,0-3.66-.01-5.47,0-1.55-.03-3.07-.07-4.62-.04-3.36-.34-6.71-.88-10.03-.57-3.32-1.63-6.53-3.14-9.54-3.08-6.03-7.99-10.93-14.02-14.01-3-1.52-6.21-2.58-9.53-3.15-3.32-.54-6.67-.84-10.03-.89-1.53-.04-3.07-.06-4.61-.06-1.82-.02-3.65-.02-5.47-.02h-55.29c-1.82,0-3.65,0-5.47.02-1.54,0-3.07.02-4.61.06-3.36.05-6.71.35-10.03.89-3.32.56-6.53,1.63-9.53,3.15-6.03,3.08-10.94,7.98-14.02,14.01-1.52,3.01-2.58,6.22-3.14,9.54-.55,3.32-.84,6.67-.88,10.03-.04,1.55-.06,3.07-.07,4.62-.01,1.81-.01,3.64-.01,5.47v55.28c0,1.83,0,3.66.01,5.47,0,1.55.03,3.07.07,4.62.04,3.36.34,6.71.88,10.03.57,3.32,1.63,6.53,3.14,9.54,3.08,6.03,7.99,10.93,14.02,14.01,3,1.52,6.22,2.58,9.53,3.15,3.32.55,6.67.85,10.03.89,1.54.04,3.07.06,4.61.06,1.82.02,3.65.02,5.47.02h55.29c1.82,0,3.65,0,5.47-.02,1.54,0,3.07-.02,4.61-.06,3.36-.04,6.72-.34,10.03-.89,3.32-.56,6.53-1.63,9.53-3.15,6.03-3.08,10.94-7.98,14.02-14.01,1.52-3.01,2.57-6.22,3.14-9.54.54-3.32.84-6.67.88-10.03.04-1.55.06-3.07.07-4.62.01-1.81.01-3.64.01-5.47v-55.28h0Z"/></g><path class="cls-10" d="m1568.99,248.73c13.2,0,20.69-6.42,27.83-15.7,3.92-4.99,8.92-6.07,12.49-3.21,3.57,2.85,3.92,8.21,0,13.2-10.35,13.56-23.55,21.76-40.32,21.76-18.2,0-34.25-9.99-45.31-27.47-3.21-4.64-2.5-9.63,1.07-12.13,3.57-2.5,8.92-1.43,12.13,3.57,7.85,11.77,18.55,19.98,32.11,19.98Zm24.62-43.89c0,6.42-4.99,10.7-10.7,10.7s-10.7-4.28-10.7-10.7,5-10.7,10.7-10.7,10.7,4.64,10.7,10.7Z"/></svg>